# This file uses centimeters as units for non-parametric coordinates.

mtllib Stone2.mtl
g default
v -1.561254 0.000000 1.275192
v 0.805470 0.000000 1.275192
v -1.067777 2.628800 1.384148
v 1.507420 3.412755 1.384147
v -1.067777 2.628800 -1.384146
v 1.507420 3.412755 -1.384145
v -1.751178 0.000000 -1.551727
v 0.995392 0.000000 -1.551727
v -1.565426 2.438955 0.000001
v 2.354415 2.647794 0.000001
v 1.476764 0.000000 0.000001
v -2.232549 0.000000 0.000001
v -1.920061 1.500000 2.000000
v 1.920061 2.161311 2.000000
v 2.611845 2.270319 0.000001
v 1.920061 2.161311 -1.999999
v -1.920061 1.500000 -1.999999
v -2.611845 1.500000 0.000001
v -0.079939 0.000000 2.000000
v -0.079939 0.000000 0.000001
v -0.079939 0.000000 -1.999999
v -0.079939 1.827022 -2.691785
v -0.089937 3.307049 -1.999999
v -0.089937 3.307049 0.000001
v -0.089937 3.307049 2.000000
v -0.079939 1.827022 2.691785
v 1.696990 3.412756 0.000001
v 1.139847 0.372241 1.492635
v 2.436731 1.135159 0.000001
v 1.272793 0.648394 -1.686208
vt 0.416729 2.854180
vt 0.426720 1.189998
vt 2.425300 1.565881
vt 2.012952 2.973040
vt 2.214896 2.973038
vt 0.506602 2.973040
vt 0.506602 1.866478
vt 0.426720 1.189998
vt 0.416729 2.854180
vt 2.012952 2.973040
vt 2.425300 1.565881
vt 0.851142 0.828387
vt 0.851142 2.973039
vt 2.094614 2.492343
vt 2.651253 0.828387
vt 2.974975 1.162752
vt 2.974975 1.340165
vt 0.506601 1.340165
vt 0.506601 2.698417
vt 2.214897 2.973040
vt -1.201693 2.973038
vt -1.961773 1.162752
vt 0.506602 1.320438
vt 0.851142 -1.316266
vt 1.874995 -0.539036
vt -1.961773 1.340165
vt -1.201695 2.973040
vt 0.426720 -0.864357
vt 1.645640 -0.445798
vt -1.335588 -1.425241
vt 0.506602 -0.321637
vt 2.587698 -1.025771
vt 0.426720 -0.864357
vt 1.778491 -0.135285
vt 2.421722 -0.829672
vt 0.506601 -0.829672
vt -1.067224 -0.829672
vt -1.638051 0.828387
vt -0.861793 -0.539036
vt -1.081412 2.492343
vt -1.412097 0.822284
vt -1.243332 -0.864357
vt -0.560417 2.091539
vt -1.316670 1.149767
vt 0.332548 1.149767
vt 0.332548 2.973039
vt -0.760427 2.411605
vt -0.760427 -0.112070
vt 0.332548 -0.673505
vt -1.412097 0.822284
vt -0.560417 2.091539
vt -1.053545 -0.864357
vt 2.329873 1.149767
vt 2.117983 2.411605
vt 2.117983 -0.112070
vt 1.311500 -0.864357
vt -1.067224 -1.963709
vt 0.506602 -1.963709
vt 2.421722 -1.963709
vt 1.501287 -0.864357
vn 0.256140 0.449353 0.855847
vn 0.256140 0.449353 0.855847
vn 0.256140 0.449353 0.855847
vn 0.256140 0.449353 0.855847
vn 0.754343 0.648300 -0.103314
vn 0.754343 0.648300 -0.103314
vn 0.754343 0.648300 -0.103314
vn 0.256140 0.449353 -0.855847
vn 0.256140 0.449353 -0.855847
vn 0.256140 0.449353 -0.855847
vn 0.256140 0.449353 -0.855847
vn 0.000000 -1.000000 0.000000
vn 0.000000 -1.000000 0.000000
vn 0.000000 -1.000000 0.000000
vn 0.000000 -1.000000 0.000000
vn 0.857456 0.425280 -0.289665
vn 0.857456 0.425280 -0.289665
vn 0.857456 0.425280 -0.289665
vn -0.690179 0.694399 -0.203624
vn -0.690179 0.694399 -0.203624
vn -0.690179 0.694399 -0.203624
vn -0.690179 0.694399 -0.203624
vn 0.754343 0.648300 0.103314
vn 0.754343 0.648300 0.103314
vn 0.754343 0.648300 0.103314
vn 0.787662 0.537169 0.301724
vn 0.787662 0.537169 0.301724
vn 0.787662 0.537169 0.301724
vn 0.000000 -1.000000 0.000000
vn 0.000000 -1.000000 0.000000
vn 0.000000 -1.000000 0.000000
vn 0.000000 -1.000000 0.000000
vn -0.690179 0.694399 0.203624
vn -0.690179 0.694399 0.203624
vn -0.690179 0.694399 0.203624
vn -0.690179 0.694399 0.203624
vn 0.394202 -0.364780 0.843529
vn 0.394202 -0.364780 0.843529
vn 0.394202 -0.364780 0.843529
vn 0.394202 -0.364780 0.843529
vn 0.849735 -0.346539 0.397317
vn 0.849735 -0.346539 0.397317
vn 0.849735 -0.346539 0.397317
vn 0.849735 -0.346539 0.397317
vn 0.867200 -0.315015 -0.385655
vn 0.867200 -0.315015 -0.385655
vn 0.867200 -0.315015 -0.385655
vn 0.867200 -0.315015 -0.385655
vn 0.358969 -0.332177 -0.872238
vn 0.358969 -0.332177 -0.872238
vn 0.358969 -0.332177 -0.872238
vn 0.358969 -0.332177 -0.872238
vn -0.927293 -0.215209 -0.306290
vn -0.927293 -0.215209 -0.306290
vn -0.927293 -0.215209 -0.306290
vn -0.927293 -0.215209 -0.306290
vn -0.879317 -0.304758 0.365957
vn -0.879317 -0.304758 0.365957
vn -0.879317 -0.304758 0.365956
vn -0.879317 -0.304758 0.365956
vn 0.000000 -1.000000 0.000000
vn 0.000000 -1.000000 0.000000
vn 0.000000 -1.000000 0.000000
vn 0.000000 -1.000000 0.000000
vn 0.000000 -1.000000 0.000000
vn 0.000000 -1.000000 0.000000
vn 0.000000 -1.000000 0.000000
vn 0.000000 -1.000000 0.000000
vn -0.264603 -0.324602 -0.908085
vn -0.264603 -0.324602 -0.908085
vn -0.264603 -0.324602 -0.908085
vn -0.264603 -0.324602 -0.908085
vn -0.505062 0.511511 -0.695176
vn -0.505062 0.511511 -0.695176
vn -0.505062 0.511511 -0.695176
vn -0.505062 0.511511 -0.695176
vn -0.538683 0.841901 -0.031986
vn -0.538683 0.841901 -0.031986
vn -0.538683 0.841901 -0.031986
vn -0.538683 0.841901 -0.031986
vn -0.538683 0.841901 0.031986
vn -0.538683 0.841901 0.031986
vn -0.538683 0.841901 0.031986
vn -0.538683 0.841901 0.031986
vn -0.505062 0.511511 0.695176
vn -0.505062 0.511511 0.695176
vn -0.505062 0.511511 0.695176
vn -0.505062 0.511511 0.695176
vn -0.325980 -0.399896 0.856633
vn -0.325980 -0.399896 0.856633
vn -0.325980 -0.399896 0.856633
vn -0.325980 -0.399896 0.856633
vn -0.062987 0.998008 0.003528
vn -0.062987 0.998008 0.003528
vn -0.062987 0.998008 0.003528
vn -0.062987 0.998008 0.003528
vn -0.062987 0.998008 -0.003528
vn -0.062987 0.998008 -0.003528
vn -0.062987 0.998008 -0.003528
vn -0.062987 0.998008 -0.003528
vn 0.443227 -0.714420 0.541437
vn 0.443228 -0.714420 0.541437
vn 0.443227 -0.714420 0.541437
vn 0.696253 -0.643670 0.317680
vn 0.696253 -0.643670 0.317680
vn 0.696253 -0.643670 0.317680
vn 0.696253 -0.643670 0.317680
vn 0.770727 -0.557909 -0.307762
vn 0.770727 -0.557909 -0.307762
vn 0.770727 -0.557909 -0.307762
vn 0.770727 -0.557909 -0.307762
vn 0.362484 -0.335429 -0.869536
vn 0.362484 -0.335429 -0.869536
vn 0.362484 -0.335429 -0.869536
vn 0.787662 0.537169 -0.301724
vn 0.787662 0.537169 -0.301724
vn 0.787662 0.537169 -0.301724
vn 0.857456 0.425280 0.289665
vn 0.857456 0.425280 0.289665
vn 0.857456 0.425280 0.289665
s off
g Stone02:pCube4
usemtl Stone02:lambert3SG
f 25/1/1 26/2/2 14/3/3 4/4/4
f 6/5/5 27/6/6 10/7/7
f 22/8/8 23/9/9 6/10/10 16/11/11
f 20/12/12 21/13/13 8/14/14 11/15/15
f 10/7/16 16/16/17 6/5/18
f 17/17/19 18/18/20 9/19/21 5/20/22
f 27/6/23 4/21/24 10/7/25
f 14/22/26 15/23/27 10/7/28
f 19/24/29 20/12/30 11/15/31 2/25/32
f 9/19/33 18/18/34 13/26/35 3/27/36
f 26/2/37 19/28/38 28/29/39 14/3/40
f 28/30/41 29/31/42 15/23/43 14/22/44
f 16/16/45 15/23/46 29/31/47 30/32/48
f 21/33/49 22/8/50 16/11/51 30/34/52
f 7/35/53 12/36/54 18/18/55 17/17/56
f 13/26/57 18/18/58 12/36/59 1/37/60
f 12/38/61 20/12/62 19/24/63 1/39/64
f 7/40/65 21/13/66 20/12/67 12/38/68
f 17/41/69 22/8/70 21/33/71 7/42/72
f 5/43/73 23/9/74 22/8/75 17/41/76
f 9/44/77 24/45/78 23/46/79 5/47/80
f 3/48/81 25/49/82 24/45/83 9/44/84
f 13/50/85 26/2/86 25/1/87 3/51/88
f 1/52/89 19/28/90 26/2/91 13/50/92
f 23/46/93 24/45/94 27/53/95 6/54/96
f 24/45/97 25/49/98 4/55/99 27/53/100
f 28/29/101 19/28/102 2/56/103
f 2/57/104 11/58/105 29/31/106 28/30/107
f 30/32/108 29/31/109 11/58/110 8/59/111
f 21/33/112 30/34/113 8/60/114
f 10/7/115 15/23/116 16/16/117
f 14/22/118 10/7/119 4/21/120
