# This file uses centimeters as units for non-parametric coordinates.

mtllib Wood.mtl
g default
v -2.543160 5.775811 1.711591
v 2.543160 5.775811 1.711591
v -1.357108 7.066900 1.711591
v 1.357108 7.066900 1.711591
v -1.357108 7.066900 -1.711591
v 1.357108 7.066900 -1.711591
v -2.543160 5.775811 -1.711591
v 2.543160 5.775811 -1.711591
v -3.476218 4.718454 2.126499
v 3.476218 4.718454 2.126499
v -1.855016 6.009543 2.126499
v 1.855016 6.009543 2.126499
v -1.855016 6.009543 -2.126499
v 1.855016 6.009543 -2.126499
v -3.476218 4.718454 -2.126499
v 3.476218 4.718454 -2.126499
v 0.348316 0.000000 -0.561870
v -0.235124 0.000000 -0.561870
v -0.526844 0.000000 -0.056596
v -0.235124 0.000000 0.448678
v 0.348316 0.000000 0.448678
v 0.640036 0.000000 -0.056596
v 0.348316 5.713444 -0.561870
v -0.235124 5.713444 -0.561870
v -0.526844 5.713444 -0.056596
v -0.235124 5.713444 0.448678
v 0.348316 5.713444 0.448678
v 0.640036 5.713444 -0.056596
v 0.056596 0.000000 -0.056596
v 0.056596 5.713444 -0.056596
v -1.908089 6.734431 1.397294
v 1.908089 6.734431 1.397294
v -1.018214 8.025520 1.397294
v 1.018214 8.025520 1.397294
v -1.018214 8.025520 -1.397294
v 1.018214 8.025520 -1.397294
v -1.908089 6.734431 -1.397294
v 1.908089 6.734431 -1.397294
v -1.367410 7.751028 1.079105
v 1.367410 7.751028 1.079105
v 0.000000 9.042117 1.079105
v 0.000000 9.042117 -1.079105
v -1.367410 7.751028 -1.079105
v 1.367410 7.751028 -1.079105
vt 0.375000 0.000000
vt 0.625000 0.000000
vt 0.375000 0.250000
vt 0.625000 0.250000
vt 0.375000 0.500000
vt 0.625000 0.500000
vt 0.375000 0.750000
vt 0.625000 0.750000
vt 0.375000 1.000000
vt 0.625000 1.000000
vt 0.875000 0.000000
vt 0.875000 0.250000
vt 0.125000 0.000000
vt 0.125000 0.250000
vt 0.375000 0.000000
vt 0.625000 0.000000
vt 0.625000 0.250000
vt 0.375000 0.250000
vt 0.625000 0.500000
vt 0.375000 0.500000
vt 0.625000 0.750000
vt 0.375000 0.750000
vt 0.625000 1.000000
vt 0.375000 1.000000
vt 0.875000 0.000000
vt 0.875000 0.250000
vt 0.125000 0.000000
vt 0.125000 0.250000
vt 0.375000 0.312500
vt 0.416667 0.312500
vt 0.416667 0.688440
vt 0.375000 0.688440
vt 0.458333 0.312500
vt 0.458333 0.688440
vt 0.500000 0.312500
vt 0.500000 0.688440
vt 0.541667 0.312500
vt 0.541667 0.688440
vt 0.583333 0.312500
vt 0.583333 0.688440
vt 0.625000 0.312500
vt 0.625000 0.688440
vt 0.421875 0.020934
vt 0.578125 0.020934
vt 0.500000 0.150000
vt 0.343750 0.156250
vt 0.421875 0.291566
vt 0.578125 0.291566
vt 0.656250 0.156250
vt 0.578125 0.979066
vt 0.421875 0.979066
vt 0.500000 0.837500
vt 0.343750 0.843750
vt 0.421875 0.708434
vt 0.578125 0.708434
vt 0.656250 0.843750
vt 0.375000 0.000000
vt 0.625000 0.000000
vt 0.625000 0.250000
vt 0.375000 0.250000
vt 0.625000 0.500000
vt 0.375000 0.500000
vt 0.625000 0.750000
vt 0.375000 0.750000
vt 0.625000 1.000000
vt 0.375000 1.000000
vt 0.875000 0.000000
vt 0.875000 0.250000
vt 0.125000 0.000000
vt 0.125000 0.250000
vt 0.375000 0.000000
vt 0.625000 0.000000
vt 0.500000 0.250000
vt 0.500000 0.500000
vt 0.625000 0.750000
vt 0.375000 0.750000
vt 0.625000 1.000000
vt 0.375000 1.000000
vt 0.875000 0.000000
vt 0.875000 0.250000
vt 0.125000 0.000000
vt 0.125000 0.250000
vn 0.000000 0.000000 1.000000
vn 0.000000 0.000000 1.000000
vn 0.000000 0.000000 1.000000
vn 0.000000 0.000000 1.000000
vn 0.000000 1.000000 0.000000
vn 0.000000 1.000000 0.000000
vn 0.000000 1.000000 0.000000
vn 0.000000 1.000000 0.000000
vn 0.000000 0.000000 -1.000000
vn 0.000000 0.000000 -1.000000
vn 0.000000 0.000000 -1.000000
vn 0.000000 0.000000 -1.000000
vn 0.000000 -1.000000 0.000000
vn 0.000000 -1.000000 0.000000
vn 0.000000 -1.000000 0.000000
vn 0.000000 -1.000000 0.000000
vn 0.736428 0.676516 0.000000
vn 0.736428 0.676516 0.000000
vn 0.736428 0.676516 0.000000
vn 0.736428 0.676516 0.000000
vn -0.736428 0.676516 0.000000
vn -0.736428 0.676516 0.000000
vn -0.736428 0.676516 0.000000
vn -0.736428 0.676516 0.000000
vn 0.000000 0.000000 1.000000
vn 0.000000 0.000000 1.000000
vn 0.000000 0.000000 1.000000
vn 0.000000 0.000000 1.000000
vn 0.000000 1.000000 0.000000
vn 0.000000 1.000000 0.000000
vn 0.000000 1.000000 0.000000
vn 0.000000 1.000000 0.000000
vn 0.000000 0.000000 -1.000000
vn 0.000000 0.000000 -1.000000
vn 0.000000 0.000000 -1.000000
vn 0.000000 0.000000 -1.000000
vn 0.000000 -1.000000 0.000000
vn 0.000000 -1.000000 0.000000
vn 0.000000 -1.000000 0.000000
vn 0.000000 -1.000000 0.000000
vn 0.622966 0.782249 0.000000
vn 0.622966 0.782249 0.000000
vn 0.622966 0.782249 0.000000
vn 0.622966 0.782249 0.000000
vn -0.622966 0.782249 0.000000
vn -0.622966 0.782249 0.000000
vn -0.622966 0.782249 0.000000
vn -0.622966 0.782249 0.000000
vn 0.000000 0.000000 -1.000000
vn 0.000000 0.000000 -1.000000
vn 0.000000 0.000000 -1.000000
vn 0.000000 0.000000 -1.000000
vn -0.866025 0.000000 -0.500000
vn -0.866025 0.000000 -0.500000
vn -0.866025 0.000000 -0.500000
vn -0.866025 0.000000 -0.500000
vn -0.866026 0.000000 0.500000
vn -0.866026 0.000000 0.500000
vn -0.866026 0.000000 0.500000
vn -0.866026 0.000000 0.500000
vn -0.000000 0.000000 1.000000
vn -0.000000 0.000000 1.000000
vn -0.000000 0.000000 1.000000
vn -0.000000 0.000000 1.000000
vn 0.866025 0.000000 0.500000
vn 0.866025 0.000000 0.500000
vn 0.866025 0.000000 0.500000
vn 0.866025 0.000000 0.500000
vn 0.866026 0.000000 -0.500000
vn 0.866026 0.000000 -0.500000
vn 0.866026 0.000000 -0.500000
vn 0.866026 0.000000 -0.500000
vn 0.000000 -1.000000 0.000000
vn 0.000000 -1.000000 0.000000
vn 0.000000 -1.000000 0.000000
vn 0.000000 -1.000000 0.000000
vn 0.000000 -1.000000 0.000000
vn 0.000000 -1.000000 0.000000
vn 0.000000 -1.000000 0.000000
vn 0.000000 1.000000 -0.000001
vn 0.000000 1.000000 -0.000000
vn 0.000000 1.000000 -0.000000
vn 0.000000 1.000000 0.000000
vn 0.000000 1.000000 0.000000
vn 0.000000 1.000000 -0.000000
vn 0.000000 1.000000 -0.000000
vn 0.000000 0.000000 1.000000
vn 0.000000 0.000000 1.000000
vn 0.000000 0.000000 1.000000
vn 0.000000 0.000000 1.000000
vn 0.000000 1.000000 0.000000
vn 0.000000 1.000000 0.000000
vn 0.000000 1.000000 0.000000
vn 0.000000 1.000000 0.000000
vn 0.000000 0.000000 -1.000000
vn 0.000000 0.000000 -1.000000
vn 0.000000 0.000000 -1.000000
vn 0.000000 0.000000 -1.000000
vn 0.000000 -1.000000 0.000000
vn 0.000000 -1.000000 0.000000
vn 0.000000 -1.000000 0.000000
vn 0.000000 -1.000000 0.000000
vn 0.823371 0.567503 0.000000
vn 0.823371 0.567503 0.000000
vn 0.823371 0.567503 0.000000
vn 0.823371 0.567503 0.000000
vn -0.823371 0.567503 0.000000
vn -0.823371 0.567503 0.000000
vn -0.823371 0.567503 0.000000
vn -0.823371 0.567503 0.000000
vn 0.000000 0.000000 1.000000
vn 0.000000 0.000000 1.000000
vn 0.000000 0.000000 1.000000
vn 0.000000 0.000000 -1.000000
vn 0.000000 0.000000 -1.000000
vn 0.000000 0.000000 -1.000000
vn 0.000000 -1.000000 0.000000
vn 0.000000 -1.000000 0.000000
vn 0.000000 -1.000000 0.000000
vn 0.000000 -1.000000 0.000000
vn 0.686524 0.727107 0.000000
vn 0.686524 0.727107 0.000000
vn 0.686524 0.727107 0.000000
vn 0.686524 0.727107 0.000000
vn -0.686524 0.727107 0.000000
vn -0.686524 0.727107 0.000000
vn -0.686524 0.727107 0.000000
vn -0.686524 0.727107 0.000000
s off
g pCube5
usemtl lambert2SG
f 1/1/1 2/2/2 4/4/3 3/3/4
f 3/3/5 4/4/6 6/6/7 5/5/8
f 5/5/9 6/6/10 8/8/11 7/7/12
f 7/7/13 8/8/14 2/10/15 1/9/16
f 2/2/17 8/11/18 6/12/19 4/4/20
f 7/13/21 1/1/22 3/3/23 5/14/24
f 9/15/25 10/16/26 12/17/27 11/18/28
f 11/18/29 12/17/30 14/19/31 13/20/32
f 13/20/33 14/19/34 16/21/35 15/22/36
f 15/22/37 16/21/38 10/23/39 9/24/40
f 10/16/41 16/25/42 14/26/43 12/17/44
f 15/27/45 9/15/46 11/18/47 13/28/48
usemtl lambert3SG
f 17/29/49 18/30/50 24/31/51 23/32/52
f 18/30/53 19/33/54 25/34/55 24/31/56
f 19/33/57 20/35/58 26/36/59 25/34/60
f 20/35/61 21/37/62 27/38/63 26/36/64
f 21/37/65 22/39/66 28/40/67 27/38/68
f 22/39/69 17/41/70 23/42/71 28/40/72
s 1
f 18/43/73 17/44/74 29/45/75
f 19/46/76 18/43/73 29/45/75
f 20/47/77 19/46/76 29/45/75
f 21/48/78 20/47/77 29/45/75
f 22/49/79 21/48/78 29/45/75
f 17/44/74 22/49/79 29/45/75
s 2
f 23/50/80 24/51/81 30/52/82
f 24/51/81 25/53/83 30/52/82
f 25/53/83 26/54/84 30/52/82
f 26/54/84 27/55/85 30/52/82
f 27/55/85 28/56/86 30/52/82
f 28/56/86 23/50/80 30/52/82
s off
usemtl lambert2SG
f 31/57/87 32/58/88 34/59/89 33/60/90
f 33/60/91 34/59/92 36/61/93 35/62/94
f 35/62/95 36/61/96 38/63/97 37/64/98
f 37/64/99 38/63/100 32/65/101 31/66/102
f 32/58/103 38/67/104 36/68/105 34/59/106
f 37/69/107 31/57/108 33/60/109 35/70/110
f 39/71/111 40/72/112 41/73/113
f 42/74/114 44/75/115 43/76/116
f 43/76/117 44/75/118 40/77/119 39/78/120
f 40/72/121 44/79/122 42/80/123 41/73/124
f 43/81/125 39/71/126 41/73/127 42/82/128
