# This file uses centimeters as units for non-parametric coordinates.

mtllib Stone_Ver2.mtl
g default
v 3.986538 -0.011236 -3.445887
v 3.986538 -0.011236 -4.026832
v 4.006976 0.586881 -3.567018
v 4.006975 0.754021 -4.066779
v 3.487701 0.586881 -3.567018
v 3.487701 0.754021 -4.066779
v 3.456267 -0.011236 -3.399268
v 3.456267 0.137525 -4.017856
v 3.747338 0.540281 -3.444863
v 3.747338 0.637866 -4.372792
v 3.747338 -0.011236 -4.191611
v 3.747338 -0.011236 -3.281109
v 4.122497 0.356960 -3.357813
v 4.122497 0.493142 -4.108391
v 3.747338 0.545209 -4.435982
v 3.372180 0.493142 -4.108391
v 3.372180 0.356960 -3.357813
v 3.747338 0.356960 -3.188005
v 4.122497 -0.011236 -3.809497
v 3.747338 -0.011236 -3.809497
v 3.372180 -0.011236 -3.809497
v 3.242415 0.390073 -3.809497
v 3.372180 0.753366 -3.807042
v 3.747338 0.753366 -3.807042
v 4.122497 0.753366 -3.807042
v 4.252261 0.437232 -3.809497
v 3.747338 0.754021 -4.113311
v 4.027326 0.228897 -4.053314
v 3.747338 0.313727 -4.392998
v 3.431041 0.296683 -4.085948
vt 0.500000 -2.096988
vt 0.500000 -3.395482
vt 1.798494 -3.395482
vt 1.798494 -2.096988
vt 1.798494 0.500000
vt 1.046997 -0.798494
vt 1.798494 -0.798494
vt 0.500000 1.798494
vt 0.500000 0.500000
vt 1.798494 1.798494
vt 0.500000 4.395482
vt 0.500000 3.096988
vt 1.798494 3.096988
vt 1.798494 4.395482
vt 3.096988 -2.096988
vt 4.395482 -3.395482
vt 4.395482 -2.096988
vt -3.395482 -3.395482
vt -2.096988 -3.395482
vt -2.096988 -2.096988
vt -3.395482 -2.096988
vt 3.096988 -3.395482
vt 0.500000 5.693976
vt 1.798494 5.693976
vt -0.798494 -3.395482
vt -0.798494 -2.096988
vt 0.500000 -4.693976
vt 1.798494 -4.304428
vt 3.096988 -4.044729
vt 4.395482 -4.304428
vt 1.798494 2.707439
vt -3.395482 -4.693976
vt -2.096988 -4.693976
vt -0.798494 -4.693976
vt -0.798494 4.395482
vt -0.798494 5.693976
vt -0.798494 3.096988
vt -0.798494 1.798494
vt -0.798494 0.500000
vt -0.798494 -0.798494
vt 0.500000 -0.798494
vt 1.798494 -4.693976
vt 3.096988 -4.693976
vt 4.395482 -4.693976
vn 0.856997 0.390027 -0.336801
vn 0.856997 0.390027 -0.336801
vn 0.856997 0.390027 -0.336801
vn 0.856997 0.390027 -0.336801
vn -0.073031 0.910286 -0.407486
vn -0.073031 0.910286 -0.407486
vn -0.073031 0.910286 -0.407486
vn -0.875131 0.366235 -0.316256
vn -0.875131 0.366235 -0.316255
vn -0.875131 0.366235 -0.316255
vn -0.875131 0.366235 -0.316255
vn -0.276664 -0.921778 -0.271628
vn -0.276664 -0.921778 -0.271628
vn -0.276664 -0.921778 -0.271628
vn -0.276664 -0.921778 -0.271628
vn -0.626279 0.385420 -0.677662
vn -0.626279 0.385420 -0.677662
vn -0.626279 0.385420 -0.677662
vn -0.226920 0.755956 0.614034
vn -0.226920 0.755956 0.614034
vn -0.226920 0.755956 0.614034
vn -0.226920 0.755956 0.614034
vn 0.073031 0.910286 -0.407486
vn 0.073031 0.910286 -0.407486
vn 0.073031 0.910286 -0.407486
vn 0.624509 0.440047 -0.645250
vn 0.624509 0.440047 -0.645250
vn 0.624509 0.440047 -0.645250
vn 0.000000 -1.000000 0.000000
vn 0.000000 -1.000000 0.000000
vn 0.000000 -1.000000 0.000000
vn 0.000000 -1.000000 0.000000
vn 0.226920 0.755956 0.614034
vn 0.226920 0.755956 0.614034
vn 0.226920 0.755956 0.614034
vn 0.226920 0.755956 0.614034
vn 0.814651 -0.295664 -0.498926
vn 0.814651 -0.295664 -0.498926
vn 0.814651 -0.295664 -0.498926
vn 0.814651 -0.295664 -0.498926
vn 0.660099 -0.265714 -0.702614
vn 0.660099 -0.265714 -0.702614
vn 0.660099 -0.265714 -0.702614
vn 0.660099 -0.265714 -0.702614
vn -0.651327 -0.201436 -0.731572
vn -0.651327 -0.201436 -0.731572
vn -0.651327 -0.201436 -0.731572
vn -0.651327 -0.201436 -0.731572
vn -0.834293 -0.281068 -0.474296
vn -0.834293 -0.281068 -0.474296
vn -0.834293 -0.281068 -0.474296
vn -0.834293 -0.281068 -0.474296
vn -0.388050 -0.208359 0.897777
vn -0.388050 -0.208359 0.897777
vn -0.388050 -0.208359 0.897777
vn -0.388050 -0.208359 0.897777
vn 0.457556 -0.291184 0.840151
vn 0.457556 -0.291184 0.840151
vn 0.457556 -0.291184 0.840151
vn 0.457556 -0.291184 0.840151
vn 0.000000 -1.000000 0.000000
vn 0.000000 -1.000000 0.000000
vn 0.000000 -1.000000 0.000000
vn 0.000000 -1.000000 0.000000
vn 0.000000 -1.000000 0.000000
vn 0.000000 -1.000000 0.000000
vn 0.000000 -1.000000 0.000000
vn 0.000000 -1.000000 0.000000
vn -0.936326 -0.272164 0.221858
vn -0.936326 -0.272164 0.221858
vn -0.936326 -0.272164 0.221858
vn -0.936326 -0.272164 0.221858
vn -0.782252 0.467106 0.412181
vn -0.782252 0.467106 0.412181
vn -0.782252 0.467106 0.412181
vn -0.782252 0.467106 0.412181
vn -0.041841 0.841595 0.538487
vn -0.041841 0.841595 0.538487
vn -0.041841 0.841595 0.538487
vn -0.041841 0.841595 0.538487
vn 0.041841 0.841595 0.538487
vn 0.041841 0.841595 0.538487
vn 0.041841 0.841595 0.538487
vn 0.041841 0.841595 0.538487
vn 0.743422 0.501493 0.442525
vn 0.743422 0.501493 0.442525
vn 0.743422 0.501493 0.442525
vn 0.743422 0.501493 0.442525
vn 0.908406 -0.324063 0.264164
vn 0.908405 -0.324063 0.264164
vn 0.908405 -0.324063 0.264164
vn 0.908406 -0.324063 0.264164
vn 0.000172 0.999997 0.002350
vn 0.000172 0.999997 0.002350
vn 0.000172 0.999997 0.002350
vn 0.000172 0.999997 0.002350
vn -0.000172 0.999997 0.002350
vn -0.000172 0.999997 0.002350
vn -0.000172 0.999997 0.002350
vn -0.000172 0.999997 0.002350
vn 0.830918 -0.198458 -0.519798
vn 0.830918 -0.198458 -0.519798
vn 0.830918 -0.198458 -0.519798
vn 0.629817 -0.329159 -0.703552
vn 0.629817 -0.329159 -0.703552
vn 0.629817 -0.329159 -0.703552
vn 0.629817 -0.329159 -0.703552
vn -0.619712 -0.406119 -0.671583
vn -0.619712 -0.406119 -0.671583
vn -0.619712 -0.406119 -0.671584
vn -0.619712 -0.406119 -0.671583
vn -0.749355 -0.357288 -0.557505
vn -0.749355 -0.357288 -0.557505
vn -0.749355 -0.357288 -0.557505
vn -0.624509 0.440047 -0.645250
vn -0.624509 0.440047 -0.645250
vn -0.624509 0.440047 -0.645250
vn 0.626279 0.385420 -0.677662
vn 0.626279 0.385420 -0.677662
vn 0.626279 0.385420 -0.677662
s off
g Stone4
usemtl Stone01:lambert3SG
f 25/1/1 26/2/2 14/3/3 4/4/4
f 6/5/5 27/6/6 10/7/7
f 22/8/8 23/9/9 6/5/10 16/10/11
f 20/11/12 21/12/13 8/13/14 11/14/15
f 10/15/16 16/16/17 6/17/18
f 17/18/19 18/19/20 9/20/21 5/21/22
f 27/6/23 4/4/24 10/7/25
f 14/3/26 15/22/27 10/15/28
f 19/23/29 20/11/30 11/14/31 2/24/32
f 9/20/33 18/19/34 13/25/35 3/26/36
f 26/2/37 19/27/38 28/28/39 14/3/40
f 28/28/41 29/29/42 15/22/43 14/3/44
f 16/16/45 15/22/46 29/29/47 30/30/48
f 21/12/49 22/8/50 16/10/51 30/31/52
f 7/32/53 12/33/54 18/19/55 17/18/56
f 13/25/57 18/19/58 12/33/59 1/34/60
f 12/35/61 20/11/62 19/23/63 1/36/64
f 7/37/65 21/12/66 20/11/67 12/35/68
f 17/38/69 22/8/70 21/12/71 7/37/72
f 5/39/73 23/9/74 22/8/75 17/38/76
f 9/40/77 24/41/78 23/9/79 5/39/80
f 3/26/81 25/1/82 24/41/83 9/40/84
f 13/25/85 26/2/86 25/1/87 3/26/88
f 1/34/89 19/27/90 26/2/91 13/25/92
f 23/9/93 24/41/94 27/6/95 6/5/96
f 24/41/97 25/1/98 4/4/99 27/6/100
f 28/28/101 19/27/102 2/42/103
f 2/42/104 11/43/105 29/29/106 28/28/107
f 30/30/108 29/29/109 11/43/110 8/44/111
f 21/12/112 30/31/113 8/13/114
f 10/15/115 15/22/116 16/16/117
f 14/3/118 10/15/119 4/4/120
