# This file uses centimeters as units for non-parametric coordinates.

mtllib Wood_Ver2.mtl
g default
v 11.175001 2.206009 -7.364116
v 11.175001 2.206009 -8.142470
v 11.175001 2.573464 -7.753293
v 10.560757 2.573464 -7.753293
v 10.560757 2.206009 -7.364116
v 10.560757 2.206009 -8.142470
v 11.265561 1.916677 -7.210235
v 11.265561 1.916677 -8.296351
v 11.265561 2.284132 -7.463500
v 11.265561 2.284132 -8.043086
v 10.470197 2.284132 -7.463500
v 10.470197 2.284132 -8.043086
v 10.470197 1.916677 -7.210235
v 10.470197 1.916677 -8.296351
v 11.355013 1.643846 -7.029488
v 11.355013 1.643846 -8.477098
v 11.355013 2.011301 -7.367048
v 11.355013 2.011301 -8.139538
v 10.380745 2.011301 -7.367048
v 10.380745 2.011301 -8.139538
v 10.380745 1.643846 -7.029488
v 10.380745 1.643846 -8.477098
v 11.473099 1.342913 -6.763931
v 11.473099 1.342913 -8.742655
v 11.473099 1.710368 -7.225339
v 11.473099 1.710368 -8.281246
v 10.262659 1.710368 -7.225339
v 10.262659 1.710368 -8.281246
v 10.262659 1.342913 -6.763931
v 10.262659 1.342913 -8.742655
v 10.707966 0.000000 -7.852427
v 10.707966 0.000000 -7.686375
v 10.851771 0.000000 -7.603349
v 10.995577 0.000000 -7.686375
v 10.995577 0.000000 -7.852427
v 10.851771 0.000000 -7.935453
v 10.707966 1.626095 -7.852427
v 10.707966 1.626095 -7.686375
v 10.851771 1.626095 -7.603349
v 10.995577 1.626095 -7.686375
v 10.995577 1.626095 -7.852427
v 10.851771 1.626095 -7.935453
v 10.851771 0.000000 -7.769401
v 10.851771 1.626095 -7.769401
vt 0.375000 0.000000
vt 0.625000 0.000000
vt 0.500000 0.250000
vt 0.500000 0.500000
vt 0.625000 0.750000
vt 0.375000 0.750000
vt 0.625000 1.000000
vt 0.375000 1.000000
vt 0.875000 0.000000
vt 0.875000 0.250000
vt 0.125000 0.000000
vt 0.125000 0.250000
vt 0.375000 0.000000
vt 0.625000 0.000000
vt 0.625000 0.250000
vt 0.375000 0.250000
vt 0.625000 0.500000
vt 0.375000 0.500000
vt 0.625000 0.750000
vt 0.375000 0.750000
vt 0.625000 1.000000
vt 0.375000 1.000000
vt 0.875000 0.000000
vt 0.875000 0.250000
vt 0.125000 0.000000
vt 0.125000 0.250000
vt 0.375000 0.000000
vt 0.625000 0.000000
vt 0.625000 0.250000
vt 0.375000 0.250000
vt 0.625000 0.500000
vt 0.375000 0.500000
vt 0.625000 0.750000
vt 0.375000 0.750000
vt 0.625000 1.000000
vt 0.375000 1.000000
vt 0.875000 0.000000
vt 0.875000 0.250000
vt 0.125000 0.000000
vt 0.125000 0.250000
vt 0.375000 0.000000
vt 0.625000 0.000000
vt 0.625000 0.250000
vt 0.375000 0.250000
vt 0.625000 0.500000
vt 0.375000 0.500000
vt 0.625000 0.750000
vt 0.375000 0.750000
vt 0.625000 1.000000
vt 0.375000 1.000000
vt 0.875000 0.000000
vt 0.875000 0.250000
vt 0.125000 0.000000
vt 0.125000 0.250000
vt 0.375000 0.312500
vt 0.416667 0.312500
vt 0.416667 0.688440
vt 0.375000 0.688440
vt 0.458333 0.312500
vt 0.458333 0.688440
vt 0.500000 0.312500
vt 0.500000 0.688440
vt 0.541667 0.312500
vt 0.541667 0.688440
vt 0.583333 0.312500
vt 0.583333 0.688440
vt 0.625000 0.312500
vt 0.625000 0.688440
vt 0.421875 0.020934
vt 0.578125 0.020934
vt 0.500000 0.150000
vt 0.343750 0.156250
vt 0.421875 0.291566
vt 0.578125 0.291566
vt 0.656250 0.156250
vt 0.578125 0.979066
vt 0.421875 0.979066
vt 0.500000 0.837500
vt 0.343750 0.843750
vt 0.421875 0.708434
vt 0.578125 0.708434
vt 0.656250 0.843750
vn 1.000000 0.000000 0.000000
vn 1.000000 0.000000 0.000000
vn 1.000000 0.000000 0.000000
vn -1.000000 0.000000 0.000000
vn -1.000000 0.000000 0.000000
vn -1.000000 0.000000 0.000000
vn 0.000000 -1.000000 0.000000
vn 0.000000 -1.000000 0.000000
vn 0.000000 -1.000000 0.000000
vn 0.000000 -1.000000 0.000000
vn 0.000000 0.727107 -0.686524
vn 0.000000 0.727107 -0.686524
vn 0.000000 0.727107 -0.686524
vn 0.000000 0.727107 -0.686524
vn 0.000000 0.727107 0.686524
vn 0.000000 0.727107 0.686524
vn 0.000000 0.727107 0.686524
vn 0.000000 0.727107 0.686524
vn 1.000000 0.000000 0.000000
vn 1.000000 0.000000 0.000000
vn 1.000000 0.000000 0.000000
vn 1.000000 0.000000 0.000000
vn 0.000000 1.000000 0.000000
vn 0.000000 1.000000 0.000000
vn 0.000000 1.000000 0.000000
vn 0.000000 1.000000 0.000000
vn -1.000000 0.000000 0.000000
vn -1.000000 0.000000 0.000000
vn -1.000000 0.000000 0.000000
vn -1.000000 0.000000 0.000000
vn 0.000000 -1.000000 0.000000
vn 0.000000 -1.000000 0.000000
vn 0.000000 -1.000000 0.000000
vn 0.000000 -1.000000 0.000000
vn 0.000000 0.567503 -0.823371
vn 0.000000 0.567503 -0.823371
vn 0.000000 0.567503 -0.823371
vn 0.000000 0.567503 -0.823371
vn 0.000000 0.567503 0.823371
vn 0.000000 0.567503 0.823371
vn 0.000000 0.567503 0.823371
vn 0.000000 0.567503 0.823371
vn 1.000000 0.000000 0.000000
vn 1.000000 0.000000 0.000000
vn 1.000000 0.000000 0.000000
vn 1.000000 0.000000 0.000000
vn 0.000000 1.000000 0.000000
vn 0.000000 1.000000 0.000000
vn 0.000000 1.000000 0.000000
vn 0.000000 1.000000 0.000000
vn -1.000000 0.000000 0.000000
vn -1.000000 0.000000 0.000000
vn -1.000000 0.000000 0.000000
vn -1.000000 0.000000 0.000000
vn 0.000000 -1.000000 0.000000
vn 0.000000 -1.000000 0.000000
vn 0.000000 -1.000000 0.000000
vn 0.000000 -1.000000 0.000000
vn 0.000000 0.676516 -0.736428
vn 0.000000 0.676516 -0.736428
vn 0.000000 0.676516 -0.736428
vn 0.000000 0.676516 -0.736428
vn 0.000000 0.676516 0.736428
vn 0.000000 0.676516 0.736428
vn 0.000000 0.676516 0.736428
vn 0.000000 0.676516 0.736428
vn 1.000000 0.000000 0.000000
vn 1.000000 0.000000 0.000000
vn 1.000000 0.000000 0.000000
vn 1.000000 0.000000 0.000000
vn 0.000000 1.000000 0.000000
vn 0.000000 1.000000 0.000000
vn 0.000000 1.000000 0.000000
vn 0.000000 1.000000 0.000000
vn -1.000000 0.000000 0.000000
vn -1.000000 0.000000 0.000000
vn -1.000000 0.000000 0.000000
vn -1.000000 0.000000 0.000000
vn 0.000000 -1.000000 0.000000
vn 0.000000 -1.000000 0.000000
vn 0.000000 -1.000000 0.000000
vn 0.000000 -1.000000 0.000000
vn 0.000000 0.782249 -0.622966
vn 0.000000 0.782249 -0.622966
vn 0.000000 0.782249 -0.622966
vn 0.000000 0.782249 -0.622966
vn 0.000000 0.782249 0.622966
vn 0.000000 0.782249 0.622966
vn 0.000000 0.782249 0.622966
vn 0.000000 0.782249 0.622966
vn -1.000000 0.000000 0.000000
vn -1.000000 0.000000 0.000000
vn -1.000000 0.000000 0.000000
vn -1.000000 0.000000 0.000000
vn -0.500000 0.000000 0.866025
vn -0.500000 0.000000 0.866025
vn -0.500000 0.000000 0.866025
vn -0.500000 0.000000 0.866025
vn 0.500000 0.000000 0.866026
vn 0.500000 0.000000 0.866026
vn 0.500000 0.000000 0.866026
vn 0.500000 0.000000 0.866026
vn 1.000000 0.000000 0.000000
vn 1.000000 0.000000 0.000000
vn 1.000000 0.000000 0.000000
vn 1.000000 0.000000 0.000000
vn 0.500000 0.000000 -0.866025
vn 0.500000 0.000000 -0.866025
vn 0.500000 0.000000 -0.866025
vn 0.500000 0.000000 -0.866025
vn -0.500000 0.000000 -0.866026
vn -0.500000 0.000000 -0.866026
vn -0.500000 0.000000 -0.866026
vn -0.500000 0.000000 -0.866026
vn 0.000000 -1.000000 0.000000
vn 0.000000 -1.000000 0.000000
vn 0.000000 -1.000000 0.000000
vn 0.000000 -1.000000 0.000000
vn 0.000000 -1.000000 0.000000
vn 0.000000 -1.000000 0.000000
vn 0.000000 -1.000000 0.000000
vn 0.000000 -1.000000 0.000000
vn 0.000000 -1.000000 0.000000
vn 0.000000 -1.000000 0.000000
vn 0.000000 -1.000000 0.000000
vn 0.000000 -1.000000 0.000000
vn 0.000000 -1.000000 0.000000
vn 0.000000 -1.000000 0.000000
vn 0.000000 -1.000000 0.000000
vn 0.000000 -1.000000 0.000000
vn 0.000000 -1.000000 0.000000
vn 0.000000 -1.000000 0.000000
vn -0.000001 1.000000 0.000000
vn 0.000000 1.000000 0.000000
vn 0.000000 1.000000 0.000000
vn 0.000000 1.000000 0.000000
vn 0.000000 1.000000 0.000000
vn 0.000000 1.000000 0.000000
vn 0.000000 1.000000 0.000000
vn 0.000000 1.000000 0.000000
vn 0.000000 1.000000 0.000000
vn 0.000000 1.000000 0.000000
vn 0.000000 1.000000 0.000000
vn 0.000000 1.000000 0.000000
vn 0.000000 1.000000 0.000000
vn 0.000000 1.000000 0.000000
vn 0.000000 1.000000 0.000000
vn 0.000000 1.000000 0.000000
vn -0.000001 1.000000 0.000000
vn 0.000000 1.000000 0.000000
s off
g Wood10
usemtl Wood:lambert2SG
f 1/1/1 2/2/2 3/3/3
f 4/4/4 6/5/5 5/6/6
f 5/6/7 6/5/8 2/7/9 1/8/10
f 2/2/11 6/9/12 4/10/13 3/3/14
f 5/11/15 1/1/16 3/3/17 4/12/18
f 7/13/19 8/14/20 10/15/21 9/16/22
f 9/16/23 10/15/24 12/17/25 11/18/26
f 11/18/27 12/17/28 14/19/29 13/20/30
f 13/20/31 14/19/32 8/21/33 7/22/34
f 8/14/35 14/23/36 12/24/37 10/15/38
f 13/25/39 7/13/40 9/16/41 11/26/42
f 15/27/43 16/28/44 18/29/45 17/30/46
f 17/30/47 18/29/48 20/31/49 19/32/50
f 19/32/51 20/31/52 22/33/53 21/34/54
f 21/34/55 22/33/56 16/35/57 15/36/58
f 16/28/59 22/37/60 20/38/61 18/29/62
f 21/39/63 15/27/64 17/30/65 19/40/66
f 23/41/67 24/42/68 26/43/69 25/44/70
f 25/44/71 26/43/72 28/45/73 27/46/74
f 27/46/75 28/45/76 30/47/77 29/48/78
f 29/48/79 30/47/80 24/49/81 23/50/82
f 24/42/83 30/51/84 28/52/85 26/43/86
f 29/53/87 23/41/88 25/44/89 27/54/90
usemtl Wood:lambert3SG
f 31/55/91 32/56/92 38/57/93 37/58/94
f 32/56/95 33/59/96 39/60/97 38/57/98
f 33/59/99 34/61/100 40/62/101 39/60/102
f 34/61/103 35/63/104 41/64/105 40/62/106
f 35/63/107 36/65/108 42/66/109 41/64/110
f 36/65/111 31/67/112 37/68/113 42/66/114
f 32/69/115 31/70/116 43/71/117
f 33/72/118 32/69/119 43/71/120
f 34/73/121 33/72/122 43/71/123
f 35/74/124 34/73/125 43/71/126
f 36/75/127 35/74/128 43/71/129
f 31/70/130 36/75/131 43/71/132
f 37/76/133 38/77/134 44/78/135
f 38/77/136 39/79/137 44/78/138
f 39/79/139 40/80/140 44/78/141
f 40/80/142 41/81/143 44/78/144
f 41/81/145 42/82/146 44/78/147
f 42/82/148 37/76/149 44/78/150
